<?xml version="1.0" encoding="utf-8"?>
<!-- Generator: Adobe Illustrator 24.1.2, SVG Export Plug-In . SVG Version: 6.00 Build 0)  -->
<svg version="1.1" id="Layer_1" xmlns="http://www.w3.org/2000/svg" xmlns:xlink="http://www.w3.org/1999/xlink" x="0px" y="0px"
	 viewBox="0 0 32 46.7" style="enable-background:new 0 0 32 46.7;" xml:space="preserve">
<style type="text/css">
	.st0{fill:#A1A1A1;}
	.st1{fill:#ABABAB;}
	.st2{fill:#8E8E8E;}
	.st3{fill:#676767;}
</style>
<path class="st0" d="M0,35L15.2,6.4c0.3-0.6,1.2-0.6,1.5,0L22,17L0,35z"/>
<path class="st1" d="M0,35L5.5,0.8c0.1-0.9,1.3-1.1,1.8-0.3L18,21L0,35z"/>
<path class="st2" d="M0,35l0.2-0.2l17.5-14.3L12.8,11L0,35z"/>
<path class="st3" d="M0,35L26.7,9.3c0.6-0.5,1.5-0.2,1.6,0.5L32,35l-15,8.7c-0.6,0.3-1.4,0.3-2,0L0,35z"/>
</svg>
